<mxfile modified="2022-05-27T10:06:07.808Z" host="app.diagrams.net" agent="5.0 (Windows NT 10.0; Win64; x64) AppleWebKit/537.36 (KHTML, like Gecko) Chrome/101.0.4951.67 Safari/537.36" etag="BbYdXh2-ImPcYX7V0GHl" version="17.4.6" type="github">
  <diagram id="f106602c-feb2-e66a-4537-3a34d633f6aa" name="Page-1">
    <mxGraphModel dx="2060" dy="1194" grid="1" gridSize="4" guides="1" tooltips="1" connect="1" arrows="1" fold="1" page="1" pageScale="1" pageWidth="1169" pageHeight="827" background="none" math="0" shadow="0">
      <root>
        <mxCell id="0" />
        <mxCell id="1" parent="0" />
        <mxCell id="14" value="" style="fillColor=#F6F6F6;strokeColor=none;shadow=0;gradientColor=none;fontSize=14;align=left;spacing=10;fontColor=#717171;9E9E9E;verticalAlign=top;spacingTop=-4;fontStyle=0;spacingLeft=40;html=1;" parent="1" vertex="1">
          <mxGeometry x="150" y="90" width="900" height="700" as="geometry" />
        </mxCell>
        <mxCell id="580" value="" style="rounded=1;absoluteArcSize=1;arcSize=2;html=1;strokeColor=none;gradientColor=none;shadow=0;dashed=0;strokeColor=none;fontSize=12;fontColor=#9E9E9E;align=left;verticalAlign=top;spacing=10;spacingTop=-4;fillColor=#E1F5FE;" parent="14" vertex="1">
          <mxGeometry x="88.52459016393443" y="43.75" width="693.4426229508196" height="189.58333333333331" as="geometry" />
        </mxCell>
        <mxCell id="572" value="" style="strokeColor=#dddddd;fillColor=#9999FF;shadow=1;strokeWidth=1;rounded=1;absoluteArcSize=1;arcSize=2;fontSize=10;fontColor=#9E9E9E;align=center;html=1;" parent="14" vertex="1">
          <mxGeometry x="88.52459016393443" y="43.75" width="354.09836065573774" height="56.25" as="geometry" />
        </mxCell>
        <mxCell id="MLptsEWVuVLRwVdw8l3M-589" value="" style="rounded=1;absoluteArcSize=1;arcSize=2;html=1;strokeColor=#82b366;shadow=0;dashed=0;strokeColor=none;fontSize=12;align=left;verticalAlign=top;spacing=10;spacingTop=-4;fillColor=#d5e8d4;" parent="14" vertex="1">
          <mxGeometry x="281.4258911819888" y="240" width="506.56660412757975" height="270" as="geometry" />
        </mxCell>
        <mxCell id="MLptsEWVuVLRwVdw8l3M-590" value="" style="rounded=1;absoluteArcSize=1;arcSize=2;html=1;strokeColor=#d6b656;shadow=0;dashed=0;strokeColor=none;fontSize=12;align=left;verticalAlign=top;spacing=10;spacingTop=-4;fillColor=#fff2cc;" parent="14" vertex="1">
          <mxGeometry x="47.380863039399635" y="530" width="760.784240150094" height="150" as="geometry" />
        </mxCell>
        <mxCell id="MLptsEWVuVLRwVdw8l3M-591" value="" style="strokeColor=#dddddd;fillColor=#9999FF;shadow=1;strokeWidth=1;rounded=1;absoluteArcSize=1;arcSize=2;fontSize=10;fontColor=#9E9E9E;align=center;html=1;" parent="14" vertex="1">
          <mxGeometry x="458.11475409836066" y="43.75" width="309.09836065573774" height="56.25" as="geometry" />
        </mxCell>
        <mxCell id="MLptsEWVuVLRwVdw8l3M-593" value="" style="strokeColor=#dddddd;fillColor=#9999FF;shadow=1;strokeWidth=1;rounded=1;absoluteArcSize=1;arcSize=2;fontSize=10;fontColor=#9E9E9E;align=center;html=1;" parent="14" vertex="1">
          <mxGeometry x="280.32786885245906" y="294" width="501.63934426229514" height="46" as="geometry" />
        </mxCell>
        <mxCell id="MLptsEWVuVLRwVdw8l3M-594" value="" style="strokeColor=#dddddd;fillColor=#9999FF;shadow=1;strokeWidth=1;rounded=1;absoluteArcSize=1;arcSize=2;fontSize=10;fontColor=#9E9E9E;align=center;html=1;" parent="14" vertex="1">
          <mxGeometry x="280.32786885245906" y="248" width="206.55737704918033" height="42" as="geometry" />
        </mxCell>
        <mxCell id="MLptsEWVuVLRwVdw8l3M-595" value="" style="rounded=1;arcSize=10;dashed=1;fillColor=none;gradientColor=none;dashPattern=1 1;strokeWidth=2;" parent="14" vertex="1">
          <mxGeometry x="90.05628517823641" y="101" width="675.422138836773" height="129" as="geometry" />
        </mxCell>
        <mxCell id="MLptsEWVuVLRwVdw8l3M-596" value="Site" style="html=1;dashed=0;whitespace=wrap;fillColor=#60a917;fontColor=#ffffff;strokeColor=#2D7600;" parent="14" vertex="1">
          <mxGeometry x="155.3470919324578" y="110" width="112.57035647279551" height="40" as="geometry" />
        </mxCell>
        <mxCell id="MLptsEWVuVLRwVdw8l3M-597" value="Building" style="html=1;dashed=0;whitespace=wrap;fillColor=#60a917;fontColor=#ffffff;strokeColor=#2D7600;" parent="14" vertex="1">
          <mxGeometry x="155.3470919324578" y="160" width="112.57035647279551" height="40" as="geometry" />
        </mxCell>
        <mxCell id="MLptsEWVuVLRwVdw8l3M-598" value="" style="strokeColor=#dddddd;fillColor=#9999FF;shadow=1;strokeWidth=1;rounded=1;absoluteArcSize=1;arcSize=2;fontSize=10;fontColor=#9E9E9E;align=center;html=1;" parent="14" vertex="1">
          <mxGeometry x="83.87008273613635" y="540" width="206.55737704918033" height="42" as="geometry" />
        </mxCell>
        <mxCell id="MLptsEWVuVLRwVdw8l3M-599" value="Passage" style="html=1;dashed=0;whitespace=wrap;fillColor=#60a917;fontColor=#ffffff;strokeColor=#2D7600;" parent="14" vertex="1">
          <mxGeometry x="290.4315196998124" y="110" width="112.57035647279551" height="40" as="geometry" />
        </mxCell>
        <mxCell id="MLptsEWVuVLRwVdw8l3M-600" value="Floor" style="html=1;dashed=0;whitespace=wrap;fillColor=#60a917;fontColor=#ffffff;strokeColor=#2D7600;" parent="14" vertex="1">
          <mxGeometry x="290.4315196998124" y="160" width="112.57035647279551" height="40" as="geometry" />
        </mxCell>
        <mxCell id="MLptsEWVuVLRwVdw8l3M-601" value="Tag" style="html=1;dashed=0;whitespace=wrap;fillColor=#60a917;fontColor=#ffffff;strokeColor=#2D7600;" parent="14" vertex="1">
          <mxGeometry x="562.8517823639776" y="160" width="112.57035647279551" height="40" as="geometry" />
        </mxCell>
        <mxCell id="MLptsEWVuVLRwVdw8l3M-602" value="Endpoint" style="html=1;dashed=0;whitespace=wrap;fillColor=#60a917;fontColor=#ffffff;strokeColor=#2D7600;" parent="14" vertex="1">
          <mxGeometry x="422.8930581613509" y="110" width="112.57035647279551" height="40" as="geometry" />
        </mxCell>
        <mxCell id="MLptsEWVuVLRwVdw8l3M-603" value="Map" style="html=1;dashed=0;whitespace=wrap;fillColor=#60a917;fontColor=#ffffff;strokeColor=#2D7600;" parent="14" vertex="1">
          <mxGeometry x="425.51594746716705" y="160" width="112.57035647279551" height="40" as="geometry" />
        </mxCell>
        <mxCell id="MLptsEWVuVLRwVdw8l3M-604" value="DScene" style="html=1;dashed=0;whitespace=wrap;fillColor=#60a917;fontColor=#ffffff;strokeColor=#2D7600;" parent="14" vertex="1">
          <mxGeometry x="290.4315196998124" y="360" width="112.57035647279551" height="40" as="geometry" />
        </mxCell>
        <mxCell id="MLptsEWVuVLRwVdw8l3M-605" value="DArea" style="html=1;dashed=0;whitespace=wrap;fillColor=#60a917;fontColor=#ffffff;strokeColor=#2D7600;" parent="14" vertex="1">
          <mxGeometry x="416.51031894934334" y="360" width="112.57035647279551" height="40" as="geometry" />
        </mxCell>
        <mxCell id="MLptsEWVuVLRwVdw8l3M-606" value="DTag" style="html=1;dashed=0;whitespace=wrap;fillColor=#60a917;fontColor=#ffffff;strokeColor=#2D7600;" parent="14" vertex="1">
          <mxGeometry x="668.1050656660414" y="360" width="112.57035647279551" height="40" as="geometry" />
        </mxCell>
        <mxCell id="MLptsEWVuVLRwVdw8l3M-607" value="&lt;span style=&quot;font-size: 22px&quot;&gt;SiteService&lt;/span&gt;" style="text;html=1;resizable=0;autosize=1;align=center;verticalAlign=middle;points=[];fillColor=none;strokeColor=none;rounded=0;" parent="14" vertex="1">
          <mxGeometry x="192.4052532833021" y="70" width="130" height="20" as="geometry" />
        </mxCell>
        <mxCell id="MLptsEWVuVLRwVdw8l3M-608" value="SiteSyncService" style="text;html=1;resizable=0;autosize=1;align=center;verticalAlign=middle;points=[];fillColor=none;strokeColor=none;rounded=0;fontSize=22;" parent="14" vertex="1">
          <mxGeometry x="495.30956848030024" y="65" width="180" height="30" as="geometry" />
        </mxCell>
        <mxCell id="MLptsEWVuVLRwVdw8l3M-609" value="SceneService" style="text;html=1;resizable=0;autosize=1;align=center;verticalAlign=middle;points=[];fillColor=none;strokeColor=none;rounded=0;fontSize=22;" parent="14" vertex="1">
          <mxGeometry x="428.5215759849906" y="309" width="150" height="30" as="geometry" />
        </mxCell>
        <mxCell id="MLptsEWVuVLRwVdw8l3M-610" value="&lt;font style=&quot;font-size: 20px&quot;&gt;SiteDataSyncService&lt;/font&gt;" style="text;html=1;resizable=0;autosize=1;align=center;verticalAlign=middle;points=[];fillColor=none;strokeColor=none;rounded=0;fontSize=22;" parent="14" vertex="1">
          <mxGeometry x="271.0356472795498" y="254" width="200" height="30" as="geometry" />
        </mxCell>
        <mxCell id="MLptsEWVuVLRwVdw8l3M-611" value="" style="strokeColor=#dddddd;fillColor=#9999FF;shadow=1;strokeWidth=1;rounded=1;absoluteArcSize=1;arcSize=2;fontSize=10;fontColor=#9E9E9E;align=center;html=1;" parent="14" vertex="1">
          <mxGeometry x="574.1139851751608" y="248" width="206.55737704918033" height="42" as="geometry" />
        </mxCell>
        <mxCell id="MLptsEWVuVLRwVdw8l3M-612" value="TaskService" style="text;html=1;resizable=0;autosize=1;align=center;verticalAlign=middle;points=[];fillColor=none;strokeColor=none;rounded=0;fontSize=20;" parent="14" vertex="1">
          <mxGeometry x="619.1369606003753" y="254" width="120" height="30" as="geometry" />
        </mxCell>
        <mxCell id="MLptsEWVuVLRwVdw8l3M-613" value="Robot" style="html=1;dashed=0;whitespace=wrap;fillColor=#60a917;fontColor=#ffffff;strokeColor=#2D7600;" parent="14" vertex="1">
          <mxGeometry x="562.8517823639776" y="110" width="112.57035647279551" height="40" as="geometry" />
        </mxCell>
        <mxCell id="MLptsEWVuVLRwVdw8l3M-614" value="DPassge" style="html=1;dashed=0;whitespace=wrap;fillColor=#60a917;fontColor=#ffffff;strokeColor=#2D7600;" parent="14" vertex="1">
          <mxGeometry x="540.3377110694183" y="360" width="112.57035647279551" height="40" as="geometry" />
        </mxCell>
        <mxCell id="MLptsEWVuVLRwVdw8l3M-615" value="DTask" style="html=1;dashed=0;whitespace=wrap;fillColor=#60a917;fontColor=#ffffff;strokeColor=#2D7600;" parent="14" vertex="1">
          <mxGeometry x="290.4315196998124" y="410" width="112.57035647279551" height="40" as="geometry" />
        </mxCell>
        <mxCell id="MLptsEWVuVLRwVdw8l3M-616" value="DSceneSyncTask" style="html=1;dashed=0;whitespace=wrap;fillColor=#60a917;fontColor=#ffffff;strokeColor=#2D7600;" parent="14" vertex="1">
          <mxGeometry x="416.51031894934334" y="410" width="112.57035647279551" height="40" as="geometry" />
        </mxCell>
        <mxCell id="MLptsEWVuVLRwVdw8l3M-617" value="graph.*" style="html=1;dashed=0;whitespace=wrap;fillColor=#60a917;fontColor=#ffffff;strokeColor=#2D7600;" parent="14" vertex="1">
          <mxGeometry x="360.22514071294563" y="460" width="258.91181988742966" height="40" as="geometry" />
        </mxCell>
        <mxCell id="MLptsEWVuVLRwVdw8l3M-619" value="SceneRepository" style="text;html=1;resizable=0;autosize=1;align=center;verticalAlign=middle;points=[];fillColor=none;strokeColor=none;rounded=0;fontSize=20;" parent="14" vertex="1">
          <mxGeometry x="91.46341463414635" y="546" width="170" height="30" as="geometry" />
        </mxCell>
        <mxCell id="MLptsEWVuVLRwVdw8l3M-620" value="SceneEntity" style="html=1;dashed=0;whitespace=wrap;fillColor=#60a917;fontColor=#ffffff;strokeColor=#2D7600;" parent="14" vertex="1">
          <mxGeometry x="123.82739212007506" y="590" width="112.57035647279551" height="40" as="geometry" />
        </mxCell>
        <mxCell id="MLptsEWVuVLRwVdw8l3M-621" value="" style="strokeColor=#dddddd;fillColor=#9999FF;shadow=1;strokeWidth=1;rounded=1;absoluteArcSize=1;arcSize=2;fontSize=10;fontColor=#9E9E9E;align=center;html=1;" parent="14" vertex="1">
          <mxGeometry x="337.7110694183865" y="538" width="202.62664165103192" height="42" as="geometry" />
        </mxCell>
        <mxCell id="MLptsEWVuVLRwVdw8l3M-622" value="AreaRepository" style="text;html=1;resizable=0;autosize=1;align=center;verticalAlign=middle;points=[];fillColor=none;strokeColor=none;rounded=0;fontSize=20;" parent="14" vertex="1">
          <mxGeometry x="363.6022514071295" y="546" width="150" height="30" as="geometry" />
        </mxCell>
        <mxCell id="MLptsEWVuVLRwVdw8l3M-623" value="AreaEntity" style="html=1;dashed=0;whitespace=wrap;fillColor=#60a917;fontColor=#ffffff;strokeColor=#2D7600;" parent="14" vertex="1">
          <mxGeometry x="391.74484052532836" y="590" width="112.57035647279551" height="40" as="geometry" />
        </mxCell>
        <mxCell id="MLptsEWVuVLRwVdw8l3M-624" value="" style="strokeColor=#dddddd;fillColor=#9999FF;shadow=1;strokeWidth=1;rounded=1;absoluteArcSize=1;arcSize=2;fontSize=10;fontColor=#9E9E9E;align=center;html=1;" parent="14" vertex="1">
          <mxGeometry x="581.4310583458924" y="538" width="206.55737704918033" height="42" as="geometry" />
        </mxCell>
        <mxCell id="MLptsEWVuVLRwVdw8l3M-625" value="RobotRepository" style="text;html=1;resizable=0;autosize=1;align=center;verticalAlign=middle;points=[];fillColor=none;strokeColor=none;rounded=0;fontSize=20;" parent="14" vertex="1">
          <mxGeometry x="594.6529080675423" y="544" width="160" height="30" as="geometry" />
        </mxCell>
        <mxCell id="MLptsEWVuVLRwVdw8l3M-626" value="RobotEntity" style="html=1;dashed=0;whitespace=wrap;fillColor=#60a917;fontColor=#ffffff;strokeColor=#2D7600;" parent="14" vertex="1">
          <mxGeometry x="630.393996247655" y="590" width="112.57035647279551" height="40" as="geometry" />
        </mxCell>
        <mxCell id="2" value="Architecture：reliability &amp;amp; performance" style="fillColor=#4DA1F5;strokeColor=none;shadow=1;gradientColor=none;fontSize=14;align=left;spacingLeft=50;fontColor=#ffffff;html=1;" parent="1" vertex="1">
          <mxGeometry x="64" y="40" width="1760" height="50" as="geometry" />
        </mxCell>
        <mxCell id="MLptsEWVuVLRwVdw8l3M-627" value="" style="fillColor=#F6F6F6;strokeColor=none;shadow=0;gradientColor=none;fontSize=14;align=left;spacing=10;fontColor=#717171;9E9E9E;verticalAlign=top;spacingTop=-4;fontStyle=0;spacingLeft=40;html=1;" parent="1" vertex="1">
          <mxGeometry x="64" y="100" width="1624" height="688" as="geometry" />
        </mxCell>
        <mxCell id="MLptsEWVuVLRwVdw8l3M-628" value="" style="rounded=1;absoluteArcSize=1;arcSize=2;html=1;strokeColor=none;gradientColor=none;shadow=0;dashed=0;strokeColor=none;fontSize=12;fontColor=#9E9E9E;align=left;verticalAlign=top;spacing=10;spacingTop=-4;fillColor=#E1F5FE;" parent="MLptsEWVuVLRwVdw8l3M-627" vertex="1">
          <mxGeometry x="159.73770491803282" y="43" width="1251.2786885245903" height="186.33333333333331" as="geometry" />
        </mxCell>
        <mxCell id="MLptsEWVuVLRwVdw8l3M-630" value="" style="rounded=1;absoluteArcSize=1;arcSize=2;html=1;strokeColor=#82b366;shadow=0;dashed=0;strokeColor=none;fontSize=12;align=left;verticalAlign=top;spacing=10;spacingTop=-4;fillColor=#d5e8d4;" parent="MLptsEWVuVLRwVdw8l3M-627" vertex="1">
          <mxGeometry x="507.81738586616655" y="235.8857142857143" width="914.0712945590997" height="265.37142857142857" as="geometry" />
        </mxCell>
        <mxCell id="MLptsEWVuVLRwVdw8l3M-631" value="" style="rounded=1;absoluteArcSize=1;arcSize=2;html=1;strokeColor=#d6b656;shadow=0;dashed=0;strokeColor=none;fontSize=12;align=left;verticalAlign=top;spacing=10;spacingTop=-4;fillColor=#fff2cc;" parent="MLptsEWVuVLRwVdw8l3M-627" vertex="1">
          <mxGeometry x="151.57333333333338" y="520.9142857142857" width="1284.7644444444447" height="147.42857142857144" as="geometry" />
        </mxCell>
        <mxCell id="MLptsEWVuVLRwVdw8l3M-633" value="" style="strokeColor=#dddddd;fillColor=#9999FF;shadow=1;strokeWidth=1;rounded=1;absoluteArcSize=1;arcSize=2;fontSize=10;fontColor=#9E9E9E;align=center;html=1;" parent="MLptsEWVuVLRwVdw8l3M-627" vertex="1">
          <mxGeometry x="505.83606557377067" y="288.96" width="905.1803278688528" height="45.21142857142857" as="geometry" />
        </mxCell>
        <mxCell id="MLptsEWVuVLRwVdw8l3M-634" value="" style="strokeColor=#dddddd;fillColor=#9999FF;shadow=1;strokeWidth=1;rounded=1;absoluteArcSize=1;arcSize=2;fontSize=10;fontColor=#9E9E9E;align=center;html=1;" parent="MLptsEWVuVLRwVdw8l3M-627" vertex="1">
          <mxGeometry x="505.83606557377067" y="243.74857142857144" width="372.72131147540995" height="41.28" as="geometry" />
        </mxCell>
        <mxCell id="MLptsEWVuVLRwVdw8l3M-635" value="" style="rounded=1;arcSize=10;dashed=1;fillColor=none;gradientColor=none;dashPattern=1 1;strokeWidth=2;" parent="MLptsEWVuVLRwVdw8l3M-627" vertex="1">
          <mxGeometry x="162.50156347717328" y="99.26857142857143" width="1218.7617260787995" height="126.78857142857143" as="geometry" />
        </mxCell>
        <mxCell id="MLptsEWVuVLRwVdw8l3M-802" style="edgeStyle=orthogonalEdgeStyle;curved=1;rounded=0;orthogonalLoop=1;jettySize=auto;html=1;exitX=0.5;exitY=1;exitDx=0;exitDy=0;entryX=0.072;entryY=0.658;entryDx=0;entryDy=0;entryPerimeter=0;fontSize=20;fontColor=#000000;startArrow=none;startFill=0;strokeColor=#6666FF;strokeWidth=2;" parent="MLptsEWVuVLRwVdw8l3M-627" source="MLptsEWVuVLRwVdw8l3M-636" target="MLptsEWVuVLRwVdw8l3M-724" edge="1">
          <mxGeometry relative="1" as="geometry">
            <Array as="points">
              <mxPoint x="230.96888888888896" y="147.42857142857144" />
              <mxPoint x="230.96888888888896" y="192.64000000000001" />
              <mxPoint x="238.18666666666672" y="192.64000000000001" />
            </Array>
          </mxGeometry>
        </mxCell>
        <mxCell id="MLptsEWVuVLRwVdw8l3M-636" value="Site" style="html=1;dashed=0;whitespace=wrap;fillColor=#60a917;fontColor=#ffffff;strokeColor=#2D7600;" parent="MLptsEWVuVLRwVdw8l3M-627" vertex="1">
          <mxGeometry x="280.3151969981239" y="108.11428571428571" width="203.1269543464666" height="39.31428571428572" as="geometry" />
        </mxCell>
        <mxCell id="MLptsEWVuVLRwVdw8l3M-637" value="Building" style="html=1;dashed=0;whitespace=wrap;fillColor=#60a917;fontColor=#ffffff;strokeColor=#2D7600;" parent="MLptsEWVuVLRwVdw8l3M-627" vertex="1">
          <mxGeometry x="280.3151969981239" y="157.25714285714287" width="203.1269543464666" height="39.31428571428572" as="geometry" />
        </mxCell>
        <mxCell id="MLptsEWVuVLRwVdw8l3M-638" value="" style="strokeColor=#dddddd;fillColor=#9999FF;shadow=1;strokeWidth=1;rounded=1;absoluteArcSize=1;arcSize=2;fontSize=10;fontColor=#9E9E9E;align=center;html=1;" parent="MLptsEWVuVLRwVdw8l3M-627" vertex="1">
          <mxGeometry x="151.33890484831718" y="530.7428571428571" width="372.72131147540995" height="41.28" as="geometry" />
        </mxCell>
        <mxCell id="MLptsEWVuVLRwVdw8l3M-639" value="Passage" style="html=1;dashed=0;whitespace=wrap;fillColor=#60a917;fontColor=#ffffff;strokeColor=#2D7600;" parent="MLptsEWVuVLRwVdw8l3M-627" vertex="1">
          <mxGeometry x="524.0675422138838" y="108.11428571428571" width="203.1269543464666" height="39.31428571428572" as="geometry" />
        </mxCell>
        <mxCell id="MLptsEWVuVLRwVdw8l3M-640" value="Floor" style="html=1;dashed=0;whitespace=wrap;fillColor=#60a917;fontColor=#ffffff;strokeColor=#2D7600;" parent="MLptsEWVuVLRwVdw8l3M-627" vertex="1">
          <mxGeometry x="524.0675422138838" y="157.25714285714287" width="203.1269543464666" height="39.31428571428572" as="geometry" />
        </mxCell>
        <mxCell id="MLptsEWVuVLRwVdw8l3M-641" value="Tag" style="html=1;dashed=0;whitespace=wrap;fillColor=#60a917;fontColor=#ffffff;strokeColor=#2D7600;" parent="MLptsEWVuVLRwVdw8l3M-627" vertex="1">
          <mxGeometry x="1015.6347717323331" y="157.25714285714287" width="203.1269543464666" height="39.31428571428572" as="geometry" />
        </mxCell>
        <mxCell id="MLptsEWVuVLRwVdw8l3M-642" value="Endpoint" style="html=1;dashed=0;whitespace=wrap;fillColor=#60a917;fontColor=#ffffff;strokeColor=#2D7600;" parent="MLptsEWVuVLRwVdw8l3M-627" vertex="1">
          <mxGeometry x="763.087029393371" y="108.11428571428571" width="203.1269543464666" height="39.31428571428572" as="geometry" />
        </mxCell>
        <mxCell id="MLptsEWVuVLRwVdw8l3M-643" value="Map" style="html=1;dashed=0;whitespace=wrap;fillColor=#60a917;fontColor=#ffffff;strokeColor=#2D7600;" parent="MLptsEWVuVLRwVdw8l3M-627" vertex="1">
          <mxGeometry x="767.8198874296438" y="157.25714285714287" width="203.1269543464666" height="39.31428571428572" as="geometry" />
        </mxCell>
        <mxCell id="MLptsEWVuVLRwVdw8l3M-644" value="DScene" style="html=1;dashed=0;whitespace=wrap;fillColor=#60a917;fontColor=#ffffff;strokeColor=#2D7600;" parent="MLptsEWVuVLRwVdw8l3M-627" vertex="1">
          <mxGeometry x="524.0675422138838" y="353.8285714285714" width="203.1269543464666" height="39.31428571428572" as="geometry" />
        </mxCell>
        <mxCell id="MLptsEWVuVLRwVdw8l3M-645" value="DArea" style="html=1;dashed=0;whitespace=wrap;fillColor=#60a917;fontColor=#ffffff;strokeColor=#2D7600;" parent="MLptsEWVuVLRwVdw8l3M-627" vertex="1">
          <mxGeometry x="751.5697310819264" y="353.8285714285714" width="203.1269543464666" height="39.31428571428572" as="geometry" />
        </mxCell>
        <mxCell id="MLptsEWVuVLRwVdw8l3M-646" value="DTag" style="html=1;dashed=0;whitespace=wrap;fillColor=#60a917;fontColor=#ffffff;strokeColor=#2D7600;" parent="MLptsEWVuVLRwVdw8l3M-627" vertex="1">
          <mxGeometry x="1205.5584740462793" y="353.8285714285714" width="203.1269543464666" height="39.31428571428572" as="geometry" />
        </mxCell>
        <mxCell id="MLptsEWVuVLRwVdw8l3M-647" value="&lt;span style=&quot;font-size: 22px&quot;&gt;SiteService&lt;/span&gt;" style="text;html=1;resizable=0;autosize=1;align=center;verticalAlign=middle;points=[];fillColor=none;strokeColor=none;rounded=0;" parent="MLptsEWVuVLRwVdw8l3M-627" vertex="1">
          <mxGeometry x="347.1845903689807" y="68.8" width="130" height="20" as="geometry" />
        </mxCell>
        <mxCell id="MLptsEWVuVLRwVdw8l3M-649" value="SceneService" style="text;html=1;resizable=0;autosize=1;align=center;verticalAlign=middle;points=[];fillColor=none;strokeColor=none;rounded=0;fontSize=22;" parent="MLptsEWVuVLRwVdw8l3M-627" vertex="1">
          <mxGeometry x="773.2433771106943" y="303.70285714285717" width="150" height="30" as="geometry" />
        </mxCell>
        <mxCell id="MLptsEWVuVLRwVdw8l3M-650" value="&lt;font style=&quot;font-size: 20px&quot;&gt;SiteDataSyncService&lt;/font&gt;" style="text;html=1;resizable=0;autosize=1;align=center;verticalAlign=middle;points=[];fillColor=none;strokeColor=none;rounded=0;fontSize=22;" parent="MLptsEWVuVLRwVdw8l3M-627" vertex="1">
          <mxGeometry x="489.0687679799877" y="249.6457142857143" width="200" height="30" as="geometry" />
        </mxCell>
        <mxCell id="MLptsEWVuVLRwVdw8l3M-651" value="" style="strokeColor=#dddddd;fillColor=#9999FF;shadow=1;strokeWidth=1;rounded=1;absoluteArcSize=1;arcSize=2;fontSize=10;fontColor=#9E9E9E;align=center;html=1;" parent="MLptsEWVuVLRwVdw8l3M-627" vertex="1">
          <mxGeometry x="1035.9567910271794" y="243.74857142857144" width="372.72131147540995" height="41.28" as="geometry" />
        </mxCell>
        <mxCell id="MLptsEWVuVLRwVdw8l3M-652" value="TaskService" style="text;html=1;resizable=0;autosize=1;align=center;verticalAlign=middle;points=[];fillColor=none;strokeColor=none;rounded=0;fontSize=20;" parent="MLptsEWVuVLRwVdw8l3M-627" vertex="1">
          <mxGeometry x="1117.1982489055663" y="249.6457142857143" width="120" height="30" as="geometry" />
        </mxCell>
        <mxCell id="MLptsEWVuVLRwVdw8l3M-653" value="Robot" style="html=1;dashed=0;whitespace=wrap;fillColor=#60a917;fontColor=#ffffff;strokeColor=#2D7600;" parent="MLptsEWVuVLRwVdw8l3M-627" vertex="1">
          <mxGeometry x="1015.6347717323331" y="108.11428571428571" width="203.1269543464666" height="39.31428571428572" as="geometry" />
        </mxCell>
        <mxCell id="MLptsEWVuVLRwVdw8l3M-654" value="DPassge" style="html=1;dashed=0;whitespace=wrap;fillColor=#60a917;fontColor=#ffffff;strokeColor=#2D7600;" parent="MLptsEWVuVLRwVdw8l3M-627" vertex="1">
          <mxGeometry x="975.0093808630395" y="353.8285714285714" width="203.1269543464666" height="39.31428571428572" as="geometry" />
        </mxCell>
        <mxCell id="MLptsEWVuVLRwVdw8l3M-655" value="DTask" style="html=1;dashed=0;whitespace=wrap;fillColor=#60a917;fontColor=#ffffff;strokeColor=#2D7600;" parent="MLptsEWVuVLRwVdw8l3M-627" vertex="1">
          <mxGeometry x="524.0675422138838" y="402.9714285714286" width="203.1269543464666" height="39.31428571428572" as="geometry" />
        </mxCell>
        <mxCell id="MLptsEWVuVLRwVdw8l3M-656" value="DSceneSyncTask" style="html=1;dashed=0;whitespace=wrap;fillColor=#60a917;fontColor=#ffffff;strokeColor=#2D7600;" parent="MLptsEWVuVLRwVdw8l3M-627" vertex="1">
          <mxGeometry x="751.5697310819264" y="402.9714285714286" width="203.1269543464666" height="39.31428571428572" as="geometry" />
        </mxCell>
        <mxCell id="MLptsEWVuVLRwVdw8l3M-657" value="graph.*" style="html=1;dashed=0;whitespace=wrap;fillColor=#60a917;fontColor=#ffffff;strokeColor=#2D7600;" parent="MLptsEWVuVLRwVdw8l3M-627" vertex="1">
          <mxGeometry x="650.0062539086931" y="452.1142857142857" width="467.1919949968732" height="39.31428571428572" as="geometry" />
        </mxCell>
        <mxCell id="MLptsEWVuVLRwVdw8l3M-658" value="SceneRepository" style="text;html=1;resizable=0;autosize=1;align=center;verticalAlign=middle;points=[];fillColor=none;strokeColor=none;rounded=0;fontSize=20;" parent="MLptsEWVuVLRwVdw8l3M-627" vertex="1">
          <mxGeometry x="165.0406504065041" y="536.64" width="170" height="30" as="geometry" />
        </mxCell>
        <mxCell id="MLptsEWVuVLRwVdw8l3M-659" value="SceneEntity" style="html=1;dashed=0;whitespace=wrap;fillColor=#60a917;fontColor=#ffffff;strokeColor=#2D7600;" parent="MLptsEWVuVLRwVdw8l3M-627" vertex="1">
          <mxGeometry x="223.4396497811133" y="579.8857142857142" width="203.1269543464666" height="39.31428571428572" as="geometry" />
        </mxCell>
        <mxCell id="MLptsEWVuVLRwVdw8l3M-660" value="" style="strokeColor=#dddddd;fillColor=#9999FF;shadow=1;strokeWidth=1;rounded=1;absoluteArcSize=1;arcSize=2;fontSize=10;fontColor=#9E9E9E;align=center;html=1;" parent="MLptsEWVuVLRwVdw8l3M-627" vertex="1">
          <mxGeometry x="609.3808630393997" y="528.7771428571428" width="365.6285178236399" height="41.28" as="geometry" />
        </mxCell>
        <mxCell id="MLptsEWVuVLRwVdw8l3M-661" value="AreaRepository" style="text;html=1;resizable=0;autosize=1;align=center;verticalAlign=middle;points=[];fillColor=none;strokeColor=none;rounded=0;fontSize=20;" parent="MLptsEWVuVLRwVdw8l3M-627" vertex="1">
          <mxGeometry x="656.100062539087" y="536.64" width="150" height="30" as="geometry" />
        </mxCell>
        <mxCell id="MLptsEWVuVLRwVdw8l3M-662" value="AreaEntity" style="html=1;dashed=0;whitespace=wrap;fillColor=#60a917;fontColor=#ffffff;strokeColor=#2D7600;" parent="MLptsEWVuVLRwVdw8l3M-627" vertex="1">
          <mxGeometry x="706.8818011257038" y="579.8857142857142" width="203.1269543464666" height="39.31428571428572" as="geometry" />
        </mxCell>
        <mxCell id="MLptsEWVuVLRwVdw8l3M-663" value="" style="strokeColor=#dddddd;fillColor=#9999FF;shadow=1;strokeWidth=1;rounded=1;absoluteArcSize=1;arcSize=2;fontSize=10;fontColor=#9E9E9E;align=center;html=1;" parent="MLptsEWVuVLRwVdw8l3M-627" vertex="1">
          <mxGeometry x="1049.1600430596995" y="528.7771428571428" width="372.72131147540995" height="41.28" as="geometry" />
        </mxCell>
        <mxCell id="MLptsEWVuVLRwVdw8l3M-664" value="RobotRepository" style="text;html=1;resizable=0;autosize=1;align=center;verticalAlign=middle;points=[];fillColor=none;strokeColor=none;rounded=0;fontSize=20;" parent="MLptsEWVuVLRwVdw8l3M-627" vertex="1">
          <mxGeometry x="1073.0181363352099" y="534.6742857142857" width="160" height="30" as="geometry" />
        </mxCell>
        <mxCell id="MLptsEWVuVLRwVdw8l3M-665" value="RobotEntity" style="html=1;dashed=0;whitespace=wrap;fillColor=#60a917;fontColor=#ffffff;strokeColor=#2D7600;" parent="MLptsEWVuVLRwVdw8l3M-627" vertex="1">
          <mxGeometry x="1137.5109443402132" y="579.8857142857142" width="203.1269543464666" height="39.31428571428572" as="geometry" />
        </mxCell>
        <mxCell id="MLptsEWVuVLRwVdw8l3M-724" value="" style="rounded=1;arcSize=10;dashed=1;fillColor=none;gradientColor=none;dashPattern=1 1;strokeWidth=2;" parent="MLptsEWVuVLRwVdw8l3M-627" vertex="1">
          <mxGeometry x="144.35555555555558" y="239.81714285714287" width="1306.4177777777782" height="436.3885714285714" as="geometry" />
        </mxCell>
        <mxCell id="MLptsEWVuVLRwVdw8l3M-629" value="" style="strokeColor=#dddddd;fillColor=#9999FF;shadow=1;strokeWidth=1;rounded=1;absoluteArcSize=1;arcSize=2;fontSize=10;fontColor=#9E9E9E;align=center;html=1;" parent="MLptsEWVuVLRwVdw8l3M-627" vertex="1">
          <mxGeometry x="10.64187416331995" y="140.00205714285713" width="133.70933333333335" height="240.06285714285715" as="geometry" />
        </mxCell>
      </root>
    </mxGraphModel>
  </diagram>
</mxfile>
